# xmcd CD database file
#
# Track frame offsets:
#	150
#	23865
#	48187
#	66247
#	86310
#	108310
#	126207
#	143920
#	168625
#	208990
#	232737
#	249347
#	272170
#	290367
#
# Disc length: 4318 seconds
#
# Revision: 0
# Processed by: cddbd v1.5.1PL2 Copyright (c) Steve Scherf et al.
# Submitted via: CDex 1.51
#
DISCID=c510dc0e
DTITLE=Dan Barrett - Blue Swing
DYEAR=2000
DGENRE=Jazz
TTITLE0=Victory Stride
TTITLE1=Saturday Night Function
TTITLE2=Christopher Coumbus
TTITLE3=Can This Be Love
TTITLE4=Russian Rag
TTITLE5=Love Pation #9
TTITLE6=Wedding Bell Blues
TTITLE7=Ray's Waltz
TTITLE8=Song of the Wanderer
TTITLE9=Nuages
TTITLE10=C'est Si Bon
TTITLE11=Saratoga Shout
TTITLE12=I can't Face The Music
TTITLE13=I Never Knew
EXTD=YEAR: 2000
EXTT0=
EXTT1=
EXTT2=
EXTT3=
EXTT4=
EXTT5=
EXTT6=
EXTT7=
EXTT8=
EXTT9=
EXTT10=
EXTT11=
EXTT12=
EXTT13=
PLAYORDER=
